<svg width="58" height="51" viewBox="0 0 58 51" fill="none" xmlns="http://www.w3.org/2000/svg">
<path d="M5.49717 35.8281H7.51572C8.35784 35.8281 8.92913 36.0207 9.22959 36.4058C9.53428 36.7866 9.69085 37.432 9.69932 38.3418V38.583C9.69932 39.2389 9.63796 39.7552 9.51523 40.1318C9.39251 40.5085 9.17246 40.7814 8.85508 40.9507C9.54062 41.23 9.8834 42.125 9.8834 43.6357V43.8706C9.8707 44.9878 9.70143 45.7897 9.37559 46.2764C9.04974 46.7588 8.4848 47 7.68076 47H5.49717V35.8281ZM8.56309 43.4453C8.56309 42.7259 8.50384 42.2223 8.38535 41.9346C8.26686 41.6468 8.03411 41.5029 7.68711 41.5029H6.81113V45.9399H7.61728C7.98968 45.9399 8.23936 45.7939 8.36631 45.502C8.49749 45.21 8.56309 44.6535 8.56309 43.8325V43.4453ZM8.39805 38.3608C8.39805 38.3481 8.39805 38.3354 8.39805 38.3228C8.39805 37.578 8.26898 37.1379 8.01084 37.0024C7.88389 36.9347 7.6998 36.9009 7.45859 36.9009H6.81113V40.4937H7.55381C7.80771 40.4937 7.98756 40.4535 8.09336 40.373C8.20339 40.2884 8.28167 40.1234 8.32822 39.8779C8.37477 39.6325 8.39805 39.2305 8.39805 38.6719V38.3608ZM15.0847 37.4785H16.3923V47H15.0847V46.0288C14.9831 46.3504 14.8075 46.6149 14.5578 46.8223C14.3124 47.0254 13.9802 47.127 13.5612 47.127C13.1465 47.127 12.7889 46.9556 12.4885 46.6128C12.1923 46.2658 12.0441 45.7347 12.0441 45.0195V37.4785H13.3454V44.8735C13.3454 45.6226 13.6184 45.9971 14.1643 45.9971C14.4689 45.9971 14.6975 45.8913 14.8498 45.6797C15.0064 45.4681 15.0847 45.1888 15.0847 44.8418V37.4785ZM22.698 44.8164C22.6938 46.3568 22.0146 47.127 20.6604 47.127C19.9749 47.127 19.4607 46.909 19.118 46.4731C18.7752 46.0373 18.6038 45.3369 18.6038 44.3721V43.6548H19.867V44.3657C19.867 45.466 20.1167 46.0161 20.616 46.0161C20.8911 46.0161 21.0879 45.9272 21.2063 45.7495C21.3291 45.5718 21.3904 45.2629 21.3904 44.8228C21.3904 44.133 21.073 43.4771 20.4383 42.855C20.3917 42.8084 20.2817 42.7048 20.1082 42.5439C19.9347 42.3789 19.8204 42.2689 19.7654 42.2139C18.9402 41.4268 18.5276 40.5571 18.5276 39.605C18.5276 38.8517 18.7054 38.291 19.0608 37.9229C19.4163 37.5505 19.922 37.3643 20.5779 37.3643C21.0223 37.3643 21.3841 37.4552 21.6634 37.6372C22.2474 38.0181 22.5394 38.9173 22.5394 40.335V40.792H21.3016V40.1318C21.3016 39.5775 21.2466 39.1649 21.1365 38.894C21.0307 38.619 20.8466 38.4814 20.5843 38.4814C20.3219 38.4814 20.1251 38.564 19.9939 38.729C19.8628 38.894 19.7972 39.1733 19.7972 39.5669C19.7972 40.1847 20.087 40.7814 20.6668 41.3569L21.3523 41.998C22.2495 42.8571 22.698 43.7965 22.698 44.8164ZM28.5239 35.7075H29.8252V47H28.5239V35.7075ZM32.3731 37.4785H33.6744V47H32.3731V37.4785ZM32.3731 35.4092H33.6808V36.6025H32.3731V35.4092ZM37.5046 38.4878C37.5892 38.1789 37.7733 37.9144 38.0568 37.6943C38.3446 37.4701 38.7001 37.3579 39.1232 37.3579C39.5507 37.3579 39.8955 37.5314 40.1579 37.8784C40.4245 38.2212 40.5578 38.7311 40.5578 39.4082V47H39.2565V39.4146C39.2565 39.0929 39.1825 38.8517 39.0344 38.6909C38.8863 38.5301 38.681 38.4497 38.4187 38.4497C38.1563 38.4497 37.9383 38.5407 37.7648 38.7227C37.5913 38.9046 37.5046 39.1776 37.5046 39.5415V47H36.2033V37.4785H37.5046V38.4878ZM42.8645 40.4302C42.8645 39.2284 43.0804 38.3926 43.512 37.9229C43.8506 37.5505 44.3499 37.3643 45.0101 37.3643C45.9664 37.3643 46.5673 37.7769 46.8128 38.6021C46.9482 39.0675 47.0159 39.696 47.0159 40.4873V42.2837H44.1722V44.1816C44.1722 45.0068 44.2378 45.521 44.3689 45.7241C44.5001 45.9272 44.7075 46.0288 44.991 46.0288C45.2745 46.0288 45.4629 45.9103 45.556 45.6733C45.6533 45.4364 45.7041 45.1803 45.7083 44.9053C45.7125 44.626 45.7146 44.3911 45.7146 44.2007V43.4326H46.9905V43.8389C46.9905 44.8503 46.9186 45.5591 46.7747 45.9653C46.6351 46.3716 46.4214 46.6657 46.1336 46.8477C45.8458 47.0254 45.4882 47.1143 45.0608 47.1143C44.6377 47.1143 44.297 47.0614 44.0389 46.9556C43.785 46.8455 43.5818 46.7017 43.4295 46.5239C43.2814 46.3462 43.1502 46.0627 43.0359 45.6733C42.9217 45.284 42.8645 44.6577 42.8645 43.7944V40.4302ZM45.7146 40.189C45.7146 39.5119 45.6893 39.1035 45.6385 38.9639C45.5919 38.8242 45.5306 38.7015 45.4544 38.5957C45.3782 38.4899 45.2407 38.437 45.0418 38.437C44.6609 38.437 44.4197 38.5978 44.3182 38.9194C44.2166 39.2368 44.1658 39.6748 44.1658 40.2334V41.4014H45.7146V40.189ZM53.1312 44.8164C53.127 46.3568 52.4478 47.127 51.0937 47.127C50.4081 47.127 49.8939 46.909 49.5512 46.4731C49.2084 46.0373 49.037 45.3369 49.037 44.3721V43.6548H50.3002V44.3657C50.3002 45.466 50.5499 46.0161 51.0492 46.0161C51.3243 46.0161 51.5211 45.9272 51.6395 45.7495C51.7623 45.5718 51.8236 45.2629 51.8236 44.8228C51.8236 44.133 51.5062 43.4771 50.8715 42.855C50.8249 42.8084 50.7149 42.7048 50.5414 42.5439C50.3679 42.3789 50.2536 42.2689 50.1986 42.2139C49.3734 41.4268 48.9608 40.5571 48.9608 39.605C48.9608 38.8517 49.1386 38.291 49.494 37.9229C49.8495 37.5505 50.3552 37.3643 51.0111 37.3643C51.4555 37.3643 51.8173 37.4552 52.0966 37.6372C52.6806 38.0181 52.9726 38.9173 52.9726 40.335V40.792H51.7348V40.1318C51.7348 39.5775 51.6798 39.1649 51.5697 38.894C51.4639 38.619 51.2798 38.4814 51.0175 38.4814C50.7551 38.4814 50.5583 38.564 50.4271 38.729C50.296 38.894 50.2304 39.1733 50.2304 39.5669C50.2304 40.1847 50.5202 40.7814 51.1 41.3569L51.7855 41.998C52.6827 42.8571 53.1312 43.7965 53.1312 44.8164Z" fill="#818181"/>
<path fill-rule="evenodd" clip-rule="evenodd" d="M18.3333 8.66665C18.3333 3.99998 23.1067 3.33331 29 3.33331C34.8933 3.33331 39.6667 3.99998 39.6667 8.66665V22C39.6667 23.1733 39.1467 24.2266 38.3333 24.96V27.3333C38.3333 28.0666 37.7333 28.6666 37 28.6666H35.6667C34.9333 28.6666 34.3333 28.0666 34.3333 27.3333V26H23.6667V27.3333C23.6667 28.0666 23.0667 28.6666 22.3333 28.6666H21C20.2667 28.6666 19.6667 28.0666 19.6667 27.3333V24.96C18.8533 24.2266 18.3333 23.1733 18.3333 22V8.66665ZM29 5.99998C24.08 5.99998 22.1867 6.61331 21.4533 7.31998H36.5467C35.8133 6.61331 33.92 5.99998 29 5.99998ZM37 9.98664V14H21V9.98664H37ZM36.16 23.3333L36.5467 22.9733C36.72 22.8266 37 22.4933 37 22V16.6666H21V22C21 22.4933 21.28 22.8266 21.4533 22.9733L21.84 23.3333H36.16ZM24.3333 18C23.2288 18 22.3333 18.8954 22.3333 20C22.3333 21.1045 23.2288 22 24.3333 22C25.4379 22 26.3333 21.1045 26.3333 20C26.3333 18.8954 25.4379 18 24.3333 18ZM31.6667 20C31.6667 18.8954 32.5621 18 33.6667 18C34.7712 18 35.6667 18.8954 35.6667 20C35.6667 21.1045 34.7712 22 33.6667 22C32.5621 22 31.6667 21.1045 31.6667 20Z" fill="#818181"/>
</svg>
