<svg width="32" height="32" viewBox="0 0 32 32" fill="none" xmlns="http://www.w3.org/2000/svg">
<g id="icon/maps/directions_bus_24px">
<path id="icon/maps/directions_bus_24px_2" fill-rule="evenodd" clip-rule="evenodd" d="M5.33334 8.66668C5.33334 4.00001 10.1067 3.33334 16 3.33334C21.8933 3.33334 26.6667 4.00001 26.6667 8.66668V22C26.6667 23.1733 26.1467 24.2267 25.3333 24.96V27.3333C25.3333 28.0667 24.7333 28.6667 24 28.6667H22.6667C21.9333 28.6667 21.3333 28.0667 21.3333 27.3333V26H10.6667V27.3333C10.6667 28.0667 10.0667 28.6667 9.33334 28.6667H8C7.26667 28.6667 6.66667 28.0667 6.66667 27.3333V24.96C5.85334 24.2267 5.33334 23.1733 5.33334 22V8.66668ZM16 6.00001C11.08 6.00001 9.18667 6.61334 8.45333 7.32001H23.5467C22.8133 6.61334 20.92 6.00001 16 6.00001ZM24 9.98667V14H8V9.98667H24ZM23.16 23.3333L23.5467 22.9733C23.72 22.8267 24 22.4933 24 22V16.6667H8V22C8 22.4933 8.28 22.8267 8.45334 22.9733L8.84 23.3333H23.16ZM11.3333 18C10.2288 18 9.33334 18.8954 9.33334 20C9.33334 21.1046 10.2288 22 11.3333 22C12.4379 22 13.3333 21.1046 13.3333 20C13.3333 18.8954 12.4379 18 11.3333 18ZM18.6667 20C18.6667 18.8954 19.5621 18 20.6667 18C21.7712 18 22.6667 18.8954 22.6667 20C22.6667 21.1046 21.7712 22 20.6667 22C19.5621 22 18.6667 21.1046 18.6667 20Z" fill="black"/>
</g>
</svg>
