<svg width="58" height="51" viewBox="0 0 58 51" fill="none" xmlns="http://www.w3.org/2000/svg">
<path d="M5.70029 35.8281H9.06455V36.9263H7.00791V40.4556H8.9376V41.5664H7.00791V47H5.70029V35.8281ZM13.8977 41.7505C13.3645 41.9917 13.009 42.1779 12.8312 42.3091C12.6535 42.4403 12.5181 42.5947 12.425 42.7725C12.3361 42.946 12.2917 43.2337 12.2917 43.6357V44.5181C12.2917 45.0724 12.3404 45.4639 12.4377 45.6924C12.535 45.9167 12.7022 46.0288 12.9392 46.0288C13.1761 46.0288 13.3793 45.9611 13.5485 45.8257C13.7178 45.686 13.8342 45.5358 13.8977 45.375V41.7505ZM11.0983 40.2334C11.0983 39.0824 11.2782 38.3164 11.6379 37.9355C11.9976 37.5547 12.5096 37.3643 13.174 37.3643C13.8384 37.3643 14.3187 37.5251 14.6149 37.8467C14.9154 38.1683 15.0995 38.6846 15.1672 39.3955C15.1968 39.7002 15.2116 40.0747 15.2116 40.519V47H13.904V46.1748C13.8363 46.4033 13.6882 46.6128 13.4597 46.8032C13.2312 46.9894 12.9476 47.0825 12.6091 47.0825C11.53 47.0825 10.9862 46.2404 10.9777 44.5562V43.6294C10.9777 43.0835 11.1258 42.618 11.4221 42.2329C11.7225 41.8436 12.5477 41.4014 13.8977 40.9062V40.1699C13.8977 39.3532 13.8384 38.8623 13.7199 38.6973C13.6014 38.5322 13.3983 38.4497 13.1105 38.4497C12.827 38.4497 12.6366 38.5745 12.5393 38.8242C12.4419 39.0739 12.3933 39.5246 12.3933 40.1763V40.5063H11.0983V40.2334ZM20.013 37.4785H21.219L19.8543 47H18.3245L16.9725 37.4785H18.1849L18.8704 42.8423L19.0926 44.9688H19.2132L19.3973 42.8359L20.013 37.4785ZM22.9291 40.481C22.9291 38.9364 23.2846 37.9736 23.9955 37.5928C24.2833 37.4404 24.6176 37.3643 24.9984 37.3643C25.9929 37.3643 26.6277 37.7642 26.9027 38.564C27.072 39.0675 27.1566 39.7065 27.1566 40.481V43.8516C27.1566 45.1888 26.9768 46.0669 26.6171 46.4858C26.2574 46.9048 25.7369 47.1143 25.0556 47.1143C24.0611 47.1143 23.4285 46.6911 23.1576 45.8447C23.0053 45.3581 22.9291 44.6937 22.9291 43.8516V40.481ZM25.849 40.2207C25.849 39.3151 25.72 38.765 25.4618 38.5703C25.356 38.4899 25.2185 38.4497 25.0492 38.4497C24.7064 38.4497 24.4843 38.6042 24.3827 38.9131C24.2854 39.222 24.2367 39.6579 24.2367 40.2207V44.2134C24.2367 45.1486 24.3679 45.7135 24.6303 45.9082C24.7361 45.9886 24.8673 46.0288 25.0238 46.0288C25.0323 46.0288 25.0408 46.0288 25.0492 46.0288C25.3835 46.0288 25.5993 45.8722 25.6967 45.5591C25.7982 45.2417 25.849 44.7931 25.849 44.2134V40.2207ZM32.4531 37.3643C32.4701 37.3643 32.4785 37.6393 32.4785 38.1895L32.4722 38.4688C31.7104 38.4688 31.1646 38.7332 30.8345 39.2622V47H29.5269V37.4785H30.8345V38.5386C30.9445 38.1662 31.137 37.8784 31.4121 37.6753C31.6914 37.4679 32.0384 37.3643 32.4531 37.3643ZM34.3346 37.4785H35.6358V47H34.3346V37.4785ZM34.3346 35.4092H35.6422V36.6025H34.3346V35.4092ZM38.3933 35.8281H39.6945V37.5547H40.7229V38.5195H39.6945V45.4702C39.6945 45.7157 39.7517 45.8701 39.8659 45.9336C39.9802 45.9928 40.2701 46.0225 40.7355 46.0225V47.0571H39.8405C39.2396 47.0571 38.8482 46.9492 38.6662 46.7334C38.4842 46.5133 38.3933 46.1304 38.3933 45.5845V38.5195H37.5236V37.5547H38.3933V35.8281ZM42.5535 40.4302C42.5535 39.2284 42.7693 38.3926 43.201 37.9229C43.5395 37.5505 44.0389 37.3643 44.699 37.3643C45.6554 37.3643 46.2563 37.7769 46.5018 38.6021C46.6372 39.0675 46.7049 39.696 46.7049 40.4873V42.2837H43.8611V44.1816C43.8611 45.0068 43.9267 45.521 44.0579 45.7241C44.1891 45.9272 44.3964 46.0288 44.68 46.0288C44.9635 46.0288 45.1518 45.9103 45.2449 45.6733C45.3422 45.4364 45.393 45.1803 45.3973 44.9053C45.4015 44.626 45.4036 44.3911 45.4036 44.2007V43.4326H46.6795V43.8389C46.6795 44.8503 46.6075 45.5591 46.4637 45.9653C46.324 46.3716 46.1103 46.6657 45.8226 46.8477C45.5348 47.0254 45.1772 47.1143 44.7498 47.1143C44.3266 47.1143 43.986 47.0614 43.7278 46.9556C43.4739 46.8455 43.2708 46.7017 43.1185 46.5239C42.9703 46.3462 42.8392 46.0627 42.7249 45.6733C42.6106 45.284 42.5535 44.6577 42.5535 43.7944V40.4302ZM45.4036 40.189C45.4036 39.5119 45.3782 39.1035 45.3274 38.9639C45.2809 38.8242 45.2195 38.7015 45.1434 38.5957C45.0672 38.4899 44.9297 38.437 44.7308 38.437C44.3499 38.437 44.1087 38.5978 44.0071 38.9194C43.9056 39.2368 43.8548 39.6748 43.8548 40.2334V41.4014H45.4036V40.189ZM52.8202 44.8164C52.816 46.3568 52.1368 47.127 50.7826 47.127C50.0971 47.127 49.5829 46.909 49.2401 46.4731C48.8974 46.0373 48.726 45.3369 48.726 44.3721V43.6548H49.9892V44.3657C49.9892 45.466 50.2388 46.0161 50.7382 46.0161C51.0132 46.0161 51.21 45.9272 51.3285 45.7495C51.4512 45.5718 51.5126 45.2629 51.5126 44.8228C51.5126 44.133 51.1952 43.4771 50.5604 42.855C50.5139 42.8084 50.4039 42.7048 50.2304 42.5439C50.0569 42.3789 49.9426 42.2689 49.8876 42.2139C49.0624 41.4268 48.6498 40.5571 48.6498 39.605C48.6498 38.8517 48.8275 38.291 49.183 37.9229C49.5385 37.5505 50.0442 37.3643 50.7001 37.3643C51.1444 37.3643 51.5062 37.4552 51.7855 37.6372C52.3695 38.0181 52.6615 38.9173 52.6615 40.335V40.792H51.4237V40.1318C51.4237 39.5775 51.3687 39.1649 51.2587 38.894C51.1529 38.619 50.9688 38.4814 50.7064 38.4814C50.4441 38.4814 50.2473 38.564 50.1161 38.729C49.9849 38.894 49.9193 39.1733 49.9193 39.5669C49.9193 40.1847 50.2092 40.7814 50.789 41.3569L51.4745 41.998C52.3716 42.8571 52.8202 43.7965 52.8202 44.8164Z" fill="#818181"/>
<path d="M29 23.6933L37.24 28.6666L35.0533 19.2933L42.3333 12.9866L32.7467 12.1733L29 3.33331L25.2533 12.1733L15.6667 12.9866L22.9467 19.2933L20.76 28.6666L29 23.6933Z" fill="#818181"/>
</svg>
