<svg width="58" height="51" viewBox="0 0 58 51" fill="none" xmlns="http://www.w3.org/2000/svg">
<path d="M7.78359 39.2876C7.70742 39.021 7.66934 38.7015 7.66934 38.3291C7.66934 37.5208 7.81745 36.8797 8.11367 36.4058C8.41413 35.9276 8.98542 35.6885 9.82754 35.6885C10.9109 35.6885 11.5499 36.209 11.7445 37.25C11.8292 37.6986 11.8715 38.2635 11.8715 38.9448V39.605H10.6146V38.856C10.6146 38.145 10.5787 37.6668 10.5067 37.4214C10.4348 37.1759 10.3459 37.013 10.2401 36.9326C10.1343 36.8522 9.99681 36.812 9.82754 36.812C9.51016 36.812 9.28164 36.9284 9.14199 37.1611C9.00234 37.3939 8.93252 37.7388 8.93252 38.1958C8.93252 38.6528 8.996 38.9871 9.12295 39.1987C9.2499 39.4103 9.40648 39.6134 9.59268 39.8081C9.77887 39.9985 9.88255 40.1064 9.90371 40.1318L10.6654 40.938C11.5795 41.8944 12.0365 42.965 12.0365 44.1499C12.0365 45.1147 11.8863 45.8532 11.5858 46.3652C11.2896 46.873 10.7226 47.127 9.88467 47.127C8.87328 47.127 8.23216 46.6826 7.96133 45.7939C7.80475 45.2946 7.72647 44.6408 7.72647 43.8325C7.72647 43.8114 7.72647 43.7902 7.72647 43.769V42.6836H9.00234V43.8198C9.00234 44.6366 9.06159 45.2057 9.18008 45.5273C9.29857 45.8447 9.51862 46.0034 9.84023 46.0034C10.1618 46.0034 10.384 45.9294 10.5067 45.7812C10.6295 45.6289 10.6993 45.3983 10.7162 45.0894C10.7374 44.7804 10.7479 44.4334 10.7479 44.0483C10.7479 43.2739 10.4073 42.5461 9.72598 41.8647L8.996 41.1348C8.3443 40.4661 7.94017 39.8504 7.78359 39.2876ZM14.3433 35.8281H15.6445V37.5547H16.6729V38.5195H15.6445V45.4702C15.6445 45.7157 15.7017 45.8701 15.8159 45.9336C15.9302 45.9928 16.2201 46.0225 16.6855 46.0225V47.0571H15.7905C15.1896 47.0571 14.7982 46.9492 14.6162 46.7334C14.4342 46.5133 14.3433 46.1304 14.3433 45.5845V38.5195H13.4736V37.5547H14.3433V35.8281ZM21.4361 41.7505C20.9029 41.9917 20.5475 42.1779 20.3697 42.3091C20.192 42.4403 20.0566 42.5947 19.9635 42.7725C19.8746 42.946 19.8302 43.2337 19.8302 43.6357V44.5181C19.8302 45.0724 19.8788 45.4639 19.9762 45.6924C20.0735 45.9167 20.2407 46.0288 20.4776 46.0288C20.7146 46.0288 20.9177 45.9611 21.087 45.8257C21.2563 45.686 21.3727 45.5358 21.4361 45.375V41.7505ZM18.6368 40.2334C18.6368 39.0824 18.8167 38.3164 19.1764 37.9355C19.5361 37.5547 20.0481 37.3643 20.7125 37.3643C21.3769 37.3643 21.8572 37.5251 22.1534 37.8467C22.4539 38.1683 22.638 38.6846 22.7057 39.3955C22.7353 39.7002 22.7501 40.0747 22.7501 40.519V47H21.4425V46.1748C21.3748 46.4033 21.2267 46.6128 20.9981 46.8032C20.7696 46.9894 20.4861 47.0825 20.1476 47.0825C19.0685 47.0825 18.5247 46.2404 18.5162 44.5562V43.6294C18.5162 43.0835 18.6643 42.618 18.9605 42.2329C19.261 41.8436 20.0862 41.4014 21.4361 40.9062V40.1699C21.4361 39.3532 21.3769 38.8623 21.2584 38.6973C21.1399 38.5322 20.9368 38.4497 20.649 38.4497C20.3655 38.4497 20.1751 38.5745 20.0777 38.8242C19.9804 39.0739 19.9317 39.5246 19.9317 40.1763V40.5063H18.6368V40.2334ZM25.406 35.8281H26.7072V37.5547H27.7355V38.5195H26.7072V45.4702C26.7072 45.7157 26.7644 45.8701 26.8786 45.9336C26.9929 45.9928 27.2827 46.0225 27.7482 46.0225V47.0571H26.8532C26.2523 47.0571 25.8609 46.9492 25.6789 46.7334C25.4969 46.5133 25.406 46.1304 25.406 45.5845V38.5195H24.5363V37.5547H25.406V35.8281ZM29.7313 37.4785H31.0325V47H29.7313V37.4785ZM29.7313 35.4092H31.0389V36.6025H29.7313V35.4092ZM33.4154 40.481C33.4154 38.9364 33.7709 37.9736 34.4818 37.5928C34.7696 37.4404 35.1039 37.3643 35.4848 37.3643C36.4792 37.3643 37.114 37.7642 37.3891 38.564C37.5583 39.0675 37.643 39.7065 37.643 40.481V43.8516C37.643 45.1888 37.4631 46.0669 37.1034 46.4858C36.7437 46.9048 36.2232 47.1143 35.5419 47.1143C34.5474 47.1143 33.9148 46.6911 33.6439 45.8447C33.4916 45.3581 33.4154 44.6937 33.4154 43.8516V40.481ZM36.3354 40.2207C36.3354 39.3151 36.2063 38.765 35.9481 38.5703C35.8423 38.4899 35.7048 38.4497 35.5355 38.4497C35.1928 38.4497 34.9706 38.6042 34.869 38.9131C34.7717 39.222 34.723 39.6579 34.723 40.2207V44.2134C34.723 45.1486 34.8542 45.7135 35.1166 45.9082C35.2224 45.9886 35.3536 46.0288 35.5102 46.0288C35.5186 46.0288 35.5271 46.0288 35.5355 46.0288C35.8699 46.0288 36.0857 45.8722 36.183 45.5591C36.2846 45.2417 36.3354 44.7931 36.3354 44.2134V40.2207ZM41.3145 38.4878C41.3991 38.1789 41.5832 37.9144 41.8667 37.6943C42.1545 37.4701 42.5099 37.3579 42.9331 37.3579C43.3605 37.3579 43.7054 37.5314 43.9678 37.8784C44.2344 38.2212 44.3677 38.7311 44.3677 39.4082V47H43.0664V39.4146C43.0664 39.0929 42.9924 38.8517 42.8442 38.6909C42.6961 38.5301 42.4909 38.4497 42.2285 38.4497C41.9661 38.4497 41.7482 38.5407 41.5747 38.7227C41.4012 38.9046 41.3145 39.1776 41.3145 39.5415V47H40.0132V37.4785H41.3145V38.4878ZM50.6163 44.8164C50.6121 46.3568 49.9329 47.127 48.5787 47.127C47.8932 47.127 47.379 46.909 47.0362 46.4731C46.6935 46.0373 46.5221 45.3369 46.5221 44.3721V43.6548H47.7853V44.3657C47.7853 45.466 48.0349 46.0161 48.5343 46.0161C48.8093 46.0161 49.0061 45.9272 49.1246 45.7495C49.2473 45.5718 49.3087 45.2629 49.3087 44.8228C49.3087 44.133 48.9913 43.4771 48.3565 42.855C48.31 42.8084 48.2 42.7048 48.0265 42.5439C47.853 42.3789 47.7387 42.2689 47.6837 42.2139C46.8585 41.4268 46.4459 40.5571 46.4459 39.605C46.4459 38.8517 46.6236 38.291 46.9791 37.9229C47.3346 37.5505 47.8403 37.3643 48.4962 37.3643C48.9405 37.3643 49.3023 37.4552 49.5816 37.6372C50.1656 38.0181 50.4576 38.9173 50.4576 40.335V40.792H49.2198V40.1318C49.2198 39.5775 49.1648 39.1649 49.0548 38.894C48.949 38.619 48.7649 38.4814 48.5025 38.4814C48.2402 38.4814 48.0434 38.564 47.9122 38.729C47.781 38.894 47.7154 39.1733 47.7154 39.5669C47.7154 40.1847 48.0053 40.7814 48.5851 41.3569L49.2706 41.998C50.1677 42.8571 50.6163 43.7965 50.6163 44.8164Z" fill="#1B91B7"/>
<path fill-rule="evenodd" clip-rule="evenodd" d="M18.3333 5.33331H39.6667V7.99998H18.3333V5.33331ZM38.28 16L37.48 12H20.52L19.72 16H38.28ZM39.6667 9.33331H18.3333L17 16V18.6666H18.3333V26.6666H31.6667V18.6666H37V26.6666H39.6667V18.6666H41V16L39.6667 9.33331ZM21 18.6666V24H29V18.6666H21Z" fill="#1B91B7"/>
</svg>
