<svg width="375" height="24" viewBox="0 0 375 24" fill="none" xmlns="http://www.w3.org/2000/svg">
<path fill-rule="evenodd" clip-rule="evenodd" d="M89.9958 8.52088C91.9355 8.52088 93.7034 9.23545 95.0589 10.4072L96 9.36811C94.3946 7.97447 92.2979 7 89.9958 7C87.6971 7 85.6034 7.97151 84 9.36071L84.9391 10.4013C86.2936 9.23299 88.0585 8.52088 89.9958 8.52088Z" fill="black"/>
<path fill-rule="evenodd" clip-rule="evenodd" d="M89.9958 11.5202C91.1583 11.5202 92.2204 11.9424 93.0396 12.6377L94.0352 11.538C92.9516 10.6079 91.5422 10.0003 89.9958 10.0003C88.4523 10.0003 87.0439 10.6064 85.9613 11.5335L86.9554 12.6347C87.7741 11.9409 88.8347 11.5202 89.9958 11.5202Z" fill="black"/>
<path fill-rule="evenodd" clip-rule="evenodd" d="M92.0435 13.7374C91.4892 13.2773 90.7755 12.9587 89.9952 12.9587C89.2165 12.9587 88.5038 13.2768 87.9495 13.735L89.9952 16L92.0435 13.7374Z" fill="black"/>
<path fill-rule="evenodd" clip-rule="evenodd" d="M8.75 14.5C10.2688 14.5 11.5 13.2688 11.5 11.75C11.5 10.2312 10.2688 9 8.75 9C7.23122 9 6 10.2312 6 11.75C6 13.2688 7.23122 14.5 8.75 14.5Z" fill="black"/>
<path fill-rule="evenodd" clip-rule="evenodd" d="M15.75 14.5C17.2688 14.5 18.5 13.2688 18.5 11.75C18.5 10.2312 17.2688 9 15.75 9C14.2312 9 13 10.2312 13 11.75C13 13.2688 14.2312 14.5 15.75 14.5Z" fill="black"/>
<path fill-rule="evenodd" clip-rule="evenodd" d="M22.75 14.5C24.2688 14.5 25.5 13.2688 25.5 11.75C25.5 10.2312 24.2688 9 22.75 9C21.2312 9 20 10.2312 20 11.75C20 13.2688 21.2312 14.5 22.75 14.5Z" fill="black"/>
<path fill-rule="evenodd" clip-rule="evenodd" d="M29.75 14C30.9926 14 32 12.9926 32 11.75C32 10.5074 30.9926 9.5 29.75 9.5C28.5074 9.5 27.5 10.5074 27.5 11.75C27.5 12.9926 28.5074 14 29.75 14ZM29.75 14.5C28.2312 14.5 27 13.2688 27 11.75C27 10.2312 28.2312 9 29.75 9C31.2688 9 32.5 10.2312 32.5 11.75C32.5 13.2688 31.2688 14.5 29.75 14.5Z" fill="black"/>
<path fill-rule="evenodd" clip-rule="evenodd" d="M36.75 14C37.9926 14 39 12.9926 39 11.75C39 10.5074 37.9926 9.5 36.75 9.5C35.5074 9.5 34.5 10.5074 34.5 11.75C34.5 12.9926 35.5074 14 36.75 14ZM36.75 14.5C35.2312 14.5 34 13.2688 34 11.75C34 10.2312 35.2312 9 36.75 9C38.2688 9 39.5 10.2312 39.5 11.75C39.5 13.2688 38.2688 14.5 36.75 14.5Z" fill="black"/>
<path d="M43.5254 7.89258H49.4961V8.94727H44.6914V11.5605H48.916V12.5859H44.6914V16.5H43.5254V7.89258ZM50.6094 10.2539H51.6816V16.5H50.6094V10.2539ZM50.6094 7.89258H51.6816V9.08789H50.6094V7.89258ZM55.4961 10.1133C55.9883 10.1133 56.418 10.2344 56.7852 10.4766C56.9844 10.6133 57.1875 10.8125 57.3945 11.0742V10.2832H58.3672V15.9902C58.3672 16.7871 58.25 17.416 58.0156 17.877C57.5781 18.7285 56.752 19.1543 55.5371 19.1543C54.8613 19.1543 54.293 19.002 53.832 18.6973C53.3711 18.3965 53.1133 17.9238 53.0586 17.2793H54.1309C54.1816 17.5605 54.2832 17.7773 54.4355 17.9297C54.6738 18.1641 55.0488 18.2812 55.5605 18.2812C56.3691 18.2812 56.8984 17.9961 57.1484 17.4258C57.2969 17.0898 57.3652 16.4902 57.3535 15.627C57.1426 15.9473 56.8887 16.1855 56.5918 16.3418C56.2949 16.498 55.9023 16.5762 55.4141 16.5762C54.7344 16.5762 54.1387 16.3359 53.627 15.8555C53.1191 15.3711 52.8652 14.5723 52.8652 13.459C52.8652 12.4082 53.1211 11.5879 53.6328 10.998C54.1484 10.4082 54.7695 10.1133 55.4961 10.1133ZM57.3945 13.3359C57.3945 12.5586 57.2344 11.9824 56.9141 11.6074C56.5938 11.2324 56.1855 11.0449 55.6895 11.0449C54.9473 11.0449 54.4395 11.3926 54.166 12.0879C54.0215 12.459 53.9492 12.9453 53.9492 13.5469C53.9492 14.2539 54.0918 14.793 54.377 15.1641C54.666 15.5312 55.0527 15.7148 55.5371 15.7148C56.2949 15.7148 56.8281 15.373 57.1367 14.6895C57.3086 14.3027 57.3945 13.8516 57.3945 13.3359ZM59.9609 10.2246H61.0039V11.1152C61.2539 10.8066 61.4805 10.582 61.6836 10.4414C62.0312 10.2031 62.4258 10.084 62.8672 10.084C63.3672 10.084 63.7695 10.207 64.0742 10.4531C64.2461 10.5938 64.4023 10.8008 64.543 11.0742C64.7773 10.7383 65.0527 10.4902 65.3691 10.3301C65.6855 10.166 66.041 10.084 66.4355 10.084C67.2793 10.084 67.8535 10.3887 68.1582 10.998C68.3223 11.3262 68.4043 11.7676 68.4043 12.3223V16.5H67.3086V12.1406C67.3086 11.7227 67.2031 11.4355 66.9922 11.2793C66.7852 11.123 66.5312 11.0449 66.2305 11.0449C65.8164 11.0449 65.459 11.1836 65.1582 11.4609C64.8613 11.7383 64.7129 12.2012 64.7129 12.8496V16.5H63.6406V12.4043C63.6406 11.9785 63.5898 11.668 63.4883 11.4727C63.3281 11.1797 63.0293 11.0332 62.5918 11.0332C62.1934 11.0332 61.8301 11.1875 61.502 11.4961C61.1777 11.8047 61.0156 12.3633 61.0156 13.1719V16.5H59.9609V10.2246ZM70.7656 14.8301C70.7656 15.1348 70.877 15.375 71.0996 15.5508C71.3223 15.7266 71.5859 15.8145 71.8906 15.8145C72.2617 15.8145 72.6211 15.7285 72.9688 15.5566C73.5547 15.2715 73.8477 14.8047 73.8477 14.1562V13.3066C73.7188 13.3887 73.5527 13.457 73.3496 13.5117C73.1465 13.5664 72.9473 13.6055 72.752 13.6289L72.1133 13.7109C71.7305 13.7617 71.4434 13.8418 71.252 13.9512C70.9277 14.1348 70.7656 14.4277 70.7656 14.8301ZM73.3203 12.6973C73.5625 12.666 73.7246 12.5645 73.8066 12.3926C73.8535 12.2988 73.877 12.1641 73.877 11.9883C73.877 11.6289 73.748 11.3691 73.4902 11.209C73.2363 11.0449 72.8711 10.9629 72.3945 10.9629C71.8438 10.9629 71.4531 11.1113 71.2227 11.4082C71.0938 11.5723 71.0098 11.8164 70.9707 12.1406H69.9863C70.0059 11.3672 70.2559 10.8301 70.7363 10.5293C71.2207 10.2246 71.7812 10.0723 72.418 10.0723C73.1562 10.0723 73.7559 10.2129 74.2168 10.4941C74.6738 10.7754 74.9023 11.2129 74.9023 11.8066V15.4219C74.9023 15.5312 74.9238 15.6191 74.9668 15.6855C75.0137 15.752 75.1094 15.7852 75.2539 15.7852C75.3008 15.7852 75.3535 15.7832 75.4121 15.7793C75.4707 15.7715 75.5332 15.7617 75.5996 15.75V16.5293C75.4355 16.5762 75.3105 16.6055 75.2246 16.6172C75.1387 16.6289 75.0215 16.6348 74.873 16.6348C74.5098 16.6348 74.2461 16.5059 74.082 16.248C73.9961 16.1113 73.9355 15.918 73.9004 15.668C73.6855 15.9492 73.377 16.1934 72.9746 16.4004C72.5723 16.6074 72.1289 16.7109 71.6445 16.7109C71.0625 16.7109 70.5859 16.5352 70.2148 16.1836C69.8477 15.8281 69.6641 15.3848 69.6641 14.8535C69.6641 14.2715 69.8457 13.8203 70.209 13.5C70.5723 13.1797 71.0488 12.9824 71.6387 12.9082L73.3203 12.6973Z" fill="black"/>
<path fill-rule="evenodd" clip-rule="evenodd" d="M346.002 7.02632C345.447 7.02632 345 7.49554 345 8.07901V14.921C345 15.5019 345.449 15.9737 346.002 15.9737H365.498C366.053 15.9737 366.5 15.5045 366.5 14.921V8.07901C366.5 7.49811 366.051 7.02632 365.498 7.02632H346.002ZM346.002 6.5H365.498C366.327 6.5 367 7.20695 367 8.07901V14.921C367 15.7968 366.327 16.5 365.498 16.5H346.002C345.173 16.5 344.5 15.7931 344.5 14.921V8.07901C344.5 7.20318 345.173 6.5 346.002 6.5Z" fill="black"/>
<path fill-rule="evenodd" clip-rule="evenodd" d="M346 7.5C345.724 7.5 345.5 7.72386 345.5 8V15C345.5 15.2761 345.724 15.5 346 15.5H354.5V7.5H346Z" fill="black"/>
<path fill-rule="evenodd" clip-rule="evenodd" d="M369 11.7323C369 12.6139 368.348 13.3432 367.5 13.4646V10C368.348 10.1213 369 10.8507 369 11.7323Z" fill="black"/>
<path d="M318.467 13.5293V9.72656L315.777 13.5293H318.467ZM318.484 16.5V14.4492H314.805V13.418L318.648 8.08594H319.539V13.5293H320.775V14.4492H319.539V16.5H318.484ZM321.555 16.5C321.594 15.7773 321.742 15.1484 322 14.6133C322.262 14.0781 322.77 13.5918 323.523 13.1543L324.648 12.5039C325.152 12.2109 325.506 11.9609 325.709 11.7539C326.029 11.4297 326.189 11.0586 326.189 10.6406C326.189 10.1523 326.043 9.76562 325.75 9.48047C325.457 9.19141 325.066 9.04688 324.578 9.04688C323.855 9.04688 323.355 9.32031 323.078 9.86719C322.93 10.1602 322.848 10.5664 322.832 11.0859H321.76C321.771 10.3555 321.906 9.75977 322.164 9.29883C322.621 8.48633 323.428 8.08008 324.584 8.08008C325.545 8.08008 326.246 8.33984 326.688 8.85938C327.133 9.37891 327.355 9.95703 327.355 10.5938C327.355 11.2656 327.119 11.8398 326.646 12.3164C326.373 12.5938 325.883 12.9297 325.176 13.3242L324.373 13.7695C323.99 13.9805 323.689 14.1816 323.471 14.373C323.08 14.7129 322.834 15.0898 322.732 15.5039H327.314V16.5H321.555ZM336.039 12.4219C336.602 12.4219 337.082 12.6211 337.48 13.0195C337.879 13.418 338.078 13.8984 338.078 14.4609C338.078 15.0234 337.879 15.5039 337.48 15.9023C337.082 16.3008 336.602 16.5 336.039 16.5C335.473 16.5 334.99 16.3008 334.592 15.9023C334.193 15.5039 333.994 15.0234 333.994 14.4609C333.994 13.8984 334.193 13.418 334.592 13.0195C334.99 12.6211 335.473 12.4219 336.039 12.4219ZM335.189 8.14453H335.84L331.146 16.7227H330.496L335.189 8.14453ZM330.285 11.6133C330.621 11.6133 330.906 11.4961 331.141 11.2617C331.379 11.0234 331.498 10.7383 331.498 10.4062C331.498 10.0742 331.379 9.79102 331.141 9.55664C330.906 9.31836 330.621 9.19922 330.285 9.19922C329.953 9.19922 329.668 9.31641 329.43 9.55078C329.195 9.78516 329.078 10.0703 329.078 10.4062C329.078 10.7383 329.195 11.0234 329.43 11.2617C329.668 11.4961 329.953 11.6133 330.285 11.6133ZM330.285 8.36133C330.852 8.36133 331.334 8.5625 331.732 8.96484C332.131 9.36328 332.33 9.84375 332.33 10.4062C332.33 10.9688 332.131 11.4492 331.732 11.8477C331.334 12.2461 330.852 12.4453 330.285 12.4453C329.723 12.4453 329.242 12.2461 328.844 11.8477C328.445 11.4492 328.246 10.9688 328.246 10.4062C328.246 9.84375 328.445 9.36328 328.844 8.96484C329.242 8.5625 329.723 8.36133 330.285 8.36133ZM336.039 15.668C336.371 15.668 336.654 15.5508 336.889 15.3164C337.127 15.0781 337.246 14.793 337.246 14.4609C337.246 14.1289 337.127 13.8457 336.889 13.6113C336.654 13.373 336.371 13.2539 336.039 13.2539C335.703 13.2539 335.416 13.373 335.178 13.6113C334.943 13.8457 334.826 14.1289 334.826 14.4609C334.826 14.793 334.943 15.0781 335.178 15.3164C335.416 15.5508 335.703 15.668 336.039 15.668Z" fill="black"/>
<path d="M307.357 11.8571L307 11.5L307.357 11.1429V6.5L309.5 9L307.357 11.1429V11.8571L309.5 14L307.357 16.5V11.8571Z" fill="black"/>
<path d="M304.5 9L309.5 14L307.357 16.5V6.5L309.5 9L304.5 14" stroke="#FCFCFC" stroke-linecap="square"/>
<path d="M165.094 14.4727C165.125 15.0547 165.35 15.457 165.768 15.6797C165.982 15.7969 166.225 15.8555 166.494 15.8555C166.998 15.8555 167.428 15.6465 167.783 15.2285C168.139 14.8066 168.391 13.9531 168.539 12.668C168.305 13.0391 168.014 13.3008 167.666 13.4531C167.322 13.6016 166.951 13.6758 166.553 13.6758C165.744 13.6758 165.104 13.4238 164.631 12.9199C164.162 12.416 163.928 11.7676 163.928 10.9746C163.928 10.2129 164.16 9.54297 164.625 8.96484C165.09 8.38672 165.775 8.09766 166.682 8.09766C167.904 8.09766 168.748 8.64844 169.213 9.75C169.471 10.3555 169.6 11.1133 169.6 12.0234C169.6 13.0508 169.445 13.9609 169.137 14.7539C168.625 16.0742 167.758 16.7344 166.535 16.7344C165.715 16.7344 165.092 16.5195 164.666 16.0898C164.24 15.6602 164.027 15.1211 164.027 14.4727H165.094ZM166.693 12.75C167.111 12.75 167.492 12.6133 167.836 12.3398C168.184 12.0625 168.357 11.5801 168.357 10.8926C168.357 10.2754 168.201 9.81641 167.889 9.51562C167.58 9.21094 167.186 9.05859 166.705 9.05859C166.189 9.05859 165.779 9.23242 165.475 9.58008C165.174 9.92383 165.023 10.3848 165.023 10.9629C165.023 11.5098 165.156 11.9453 165.422 12.2695C165.688 12.5898 166.111 12.75 166.693 12.75ZM171.51 10.3066H172.734V11.584H171.51V10.3066ZM171.51 15.2227H172.734V16.5H171.51V15.2227ZM177.486 13.5293V9.72656L174.797 13.5293H177.486ZM177.504 16.5V14.4492H173.824V13.418L177.668 8.08594H178.559V13.5293H179.795V14.4492H178.559V16.5H177.504ZM180.574 16.5C180.613 15.7773 180.762 15.1484 181.02 14.6133C181.281 14.0781 181.789 13.5918 182.543 13.1543L183.668 12.5039C184.172 12.2109 184.525 11.9609 184.729 11.7539C185.049 11.4297 185.209 11.0586 185.209 10.6406C185.209 10.1523 185.062 9.76562 184.77 9.48047C184.477 9.19141 184.086 9.04688 183.598 9.04688C182.875 9.04688 182.375 9.32031 182.098 9.86719C181.949 10.1602 181.867 10.5664 181.852 11.0859H180.779C180.791 10.3555 180.926 9.75977 181.184 9.29883C181.641 8.48633 182.447 8.08008 183.604 8.08008C184.564 8.08008 185.266 8.33984 185.707 8.85938C186.152 9.37891 186.375 9.95703 186.375 10.5938C186.375 11.2656 186.139 11.8398 185.666 12.3164C185.393 12.5938 184.902 12.9297 184.195 13.3242L183.393 13.7695C183.01 13.9805 182.709 14.1816 182.49 14.373C182.1 14.7129 181.854 15.0898 181.752 15.5039H186.334V16.5H180.574ZM195.551 12.9727L194.244 9.16992L192.855 12.9727H195.551ZM193.635 7.89258H194.953L198.076 16.5H196.799L195.926 13.9219H192.521L191.59 16.5H190.395L193.635 7.89258ZM199.107 7.89258H200.777L203.25 15.1699L205.705 7.89258H207.357V16.5H206.25V11.4199C206.25 11.2441 206.254 10.9531 206.262 10.5469C206.27 10.1406 206.273 9.70508 206.273 9.24023L203.818 16.5H202.664L200.191 9.24023V9.50391C200.191 9.71484 200.195 10.0371 200.203 10.4707C200.215 10.9004 200.221 11.2168 200.221 11.4199V16.5H199.107V7.89258Z" fill="black"/>
</svg>
