<svg width="22" height="22" viewBox="0 0 22 22" fill="none" xmlns="http://www.w3.org/2000/svg">
<path fill-rule="evenodd" clip-rule="evenodd" d="M15 0C12.61 0 10.51 1.2 9.25 3.02C8.84 3.01 8.43 3 8 3C3.58 3 0 3.5 0 7V17C0 17.88 0.39 18.67 1 19.22V21C1 21.55 1.45 22 2 22H3C3.55 22 4 21.55 4 21V20H12V21C12 21.55 12.45 22 13 22H14C14.55 22 15 21.55 15 21V19.22C15.61 18.67 16 17.88 16 17V13.92C19.39 13.43 22 10.53 22 7C22 3.13 18.87 0 15 0ZM3 15.5C3 14.6716 3.67157 14 4.5 14C5.32843 14 6 14.6716 6 15.5C6 16.3284 5.32843 17 4.5 17C3.67157 17 3 16.3284 3 15.5ZM10 15.5C10 14.6716 10.6716 14 11.5 14C12.3284 14 13 14.6716 13 15.5C13 16.3284 12.3284 17 11.5 17C10.6716 17 10 16.3284 10 15.5ZM8.29 5H8C4.31 5 2.89 5.46 2.34 5.99H8.08C8.13 5.66 8.2 5.32 8.29 5ZM2 7.99H8.08C8.24 9.1 8.65 10.12 9.26 11H2V7.99ZM13.66 17.73C13.79 17.62 14 17.37 14 17V13.92C13.06 13.79 12.19 13.47 11.41 13H2V17C2 17.37 2.21 17.62 2.34 17.73L2.63 18H13.37L13.66 17.73ZM15 12C12.24 12 10 9.76 10 7C10 4.24 12.24 2 15 2C17.76 2 20 4.24 20 7C20 9.76 17.76 12 15 12ZM14 3H15.5V7.25L18.37 8.93L17.62 10.16L14 8V3Z" fill="black"/>
</svg>
